<?xml version="1.0" encoding="utf-8"?>
<!-- Generator: Adobe Illustrator 27.5.0, SVG Export Plug-In . SVG Version: 6.00 Build 0)  -->
<svg version="1.1" id="Layer_1" xmlns="http://www.w3.org/2000/svg" xmlns:xlink="http://www.w3.org/1999/xlink" x="0px" y="0px"
	 viewBox="0 0 2757.98 2000" style="enable-background:new 0 0 2757.98 2000;" xml:space="preserve">
<g>
	<rect y="-0.001" style="fill:#FFFFFF;" width="2757.98" height="2000"/>
	<path style="opacity:0.1;fill:#9BC1F9;" d="M905.063,150.281c376.838-25.592,771.939,107.717,713.862,300.963
		c-58.077,193.247,310.493-68.641,457.578,1.034c104.716,49.604,62.855,200.606,113.515,261.451
		c116.154,139.509,234.949-36.169,382.781,69.238c147.834,105.407-154.835,1089.194-309.271,1094.691L502.049,1865.13
		l-126.407-13.293c0,0-349.663-223.782-99.534-430.227c169.124-139.587,47.433-240.949,29.039-304.854
		c-21.12-73.372-70.396-201.514,144.313-295.553c214.71-94.04,159.272-298.654,153.993-341.023
		C598.173,437.81,528.223,175.873,905.063,150.281L905.063,150.281z"/>
	<g>
		<g>
			<path style="fill:#3C8F7C;" d="M520.468,1423.682c-48.08-71.677-59.722-159.895-61.021-221.28
				c-1.411-66.641,8.722-116.938,8.824-117.438l-3.331-1.077c-0.104,0.505-10.318,51.171-8.908,118.252
				c1.302,61.99,13.072,151.115,61.748,223.68L520.468,1423.682z"/>
		</g>
		<g>
			<path style="fill:#3C8F7C;" d="M479.031,1072.378c-0.58,15.112-6.594,27.985-15.626,36.079
				c-8.33-10.209-13.306-24.422-12.727-39.533c0.58-15.113,6.595-27.986,15.627-36.079
				C474.635,1043.054,479.611,1057.267,479.031,1072.378z"/>
		</g>
		<g>
			<path style="fill:#3C8F7C;" d="M449.544,1108.274c8.178,12.767,11.099,27.529,9.088,40.509
				c-11.914-2.483-23.65-10.601-31.828-23.367c-8.177-12.766-11.098-27.529-9.088-40.507
				C429.631,1087.389,441.367,1095.508,449.544,1108.274z"/>
		</g>
		<g>
			<path style="fill:#3C8F7C;" d="M433.596,1149.842c12.263,7.615,20.824,19.735,24.413,32.711
				c-11.263,3.753-24.682,2.224-36.946-5.393c-12.264-7.615-20.825-19.734-24.414-32.712
				C407.913,1140.695,421.333,1142.227,433.596,1149.842z"/>
		</g>
		<g>
			<path style="fill:#3C8F7C;" d="M440.998,1206.663c9.71,6.05,15.977,16.764,18.01,28.786c-9.726,4.696-20.861,4.567-30.571-1.483
				c-9.71-6.05-15.977-16.764-18.01-28.786C420.152,1200.483,431.289,1200.613,440.998,1206.663z"/>
		</g>
		<g>
			<path style="fill:#3C8F7C;" d="M477.771,1137.702c10.45-6.263,22.369-7.021,32.732-3.141
				c-2.292,11.467-9.101,21.938-19.55,28.203c-10.45,6.265-22.369,7.021-32.732,3.142
				C460.512,1154.439,467.322,1143.967,477.771,1137.702z"/>
		</g>
		<g>
			<path style="fill:#3C8F7C;" d="M477.995,1177.123c10.45-6.266,22.369-7.022,32.732-3.142
				c-2.292,11.467-9.101,21.938-19.551,28.202c-10.449,6.265-22.368,7.021-32.731,3.142
				C460.736,1193.858,467.546,1183.387,477.995,1177.123z"/>
		</g>
	</g>
	<g>
		<g>
			<path style="fill:#96D9C9;" d="M470.93,1775.687c-100.788-36.697-171.287-124.227-212.679-191.193
				c-44.936-72.697-66.238-137.546-66.448-138.193l-4.454,1.773c0.211,0.651,21.661,65.981,66.883,139.172
				c41.789,67.634,113.021,156.055,215.059,193.207L470.93,1775.687z"/>
		</g>
		<g>
			<path style="fill:#96D9C9;" d="M195.739,1422.744c9.177,17.288,10.774,36.935,5.863,53.965
				c-16.025-3.906-30.876-15.244-40.053-32.532c-9.177-17.287-10.774-36.934-5.863-53.965
				C171.711,1394.118,186.562,1405.456,195.739,1422.744z"/>
		</g>
		<g>
			<path style="fill:#96D9C9;" d="M185.868,1488.858c17.517,6.88,30.41,20.661,36.587,36.856
				c-15.037,7.863-33.539,9.313-51.055,2.432c-17.516-6.88-30.41-20.661-36.587-36.856
				C149.85,1483.427,168.352,1481.978,185.868,1488.858z"/>
		</g>
		<g>
			<path style="fill:#96D9C9;" d="M194.938,1549.201c18.77-2.477,36.298,3.345,48.782,14.547
				c-10.248,14.202-26.36,24.463-45.129,26.94c-18.77,2.477-36.297-3.345-48.782-14.547
				C160.057,1561.938,176.169,1551.678,194.938,1549.201z"/>
		</g>
		<g>
			<path style="fill:#96D9C9;" d="M230.472,1607.015c18.769-2.478,36.297,3.344,48.781,14.547
				c-10.248,14.202-26.36,24.463-45.129,26.94c-18.77,2.477-36.298-3.345-48.782-14.547
				C195.59,1619.753,211.702,1609.491,230.472,1607.015z"/>
		</g>
		<g>
			<path style="fill:#96D9C9;" d="M227.631,1516.971c1.02-18.255,8.634-34.733,19.835-45.977
				c9.964,10.866,15.749,27.105,14.728,45.361c-1.02,18.255-8.634,34.733-19.835,45.977
				C232.395,1551.466,226.61,1535.226,227.631,1516.971z"/>
		</g>
		<g>
			<path style="fill:#96D9C9;" d="M264.736,1576.81c0.752-18.264,8.126-34.877,19.165-46.326
				c10.127,10.669,16.153,26.789,15.4,45.053c-0.752,18.264-8.126,34.878-19.165,46.327
				C270.009,1611.193,263.984,1595.073,264.736,1576.81z"/>
		</g>
		<g>
			<path style="fill:#96D9C9;" d="M291.07,1666.798c7.157-3.78,15.03-3.898,21.668-1.021c-2.03,7.456-6.985,14.115-14.143,17.896
				c-7.157,3.781-15.03,3.898-21.668,1.022C278.958,1677.238,283.913,1670.579,291.07,1666.798z"/>
		</g>
	</g>
	<path style="fill:#3C8F7C;" d="M698.963,1686.26c0,0,92.546-161.274,66.353-199.876c-36.2-53.346-95.403,98.631-97.599,84.243
		c-20.733-135.877-16.394-307.249-113.358-333.219c-55.12-14.763,3.645,127.988-3.201,164.769
		c-6.845,36.78-98.538-94.533-155.01-164.007c-56.472-69.475-91.051-31.144-58.316,53.141
		c31.654,81.5,146.326,176.997,120.656,185.171c-25.669,8.174-169.605-105.359-191.298-63.518
		c-26.597,51.303,195.131,141.859,172.885,152.076c-22.246,10.217-127.873-37.813-127.873,3.054
		c0,40.867,145.957,51.079,142.161,68.749c-6.146,28.613-97.831-44.64-104.992-4.94c-7.324,40.604,124.463,43.684,119.859,75.443
		c-2.646,18.251-35.838-0.852-41.842,24.238c-13.69,57.215,193.979,137.387,193.979,137.387L698.963,1686.26z"/>
	<path style="fill:#50BFA5;" d="M854.269,1716.729c31.528,14.77,23.023,51.445,23.023,51.445s85.483-66.746,117.439-27.788
		c31.955,38.957,15.165,115.323-22.319,127.737c-37.483,12.414-363.486,3.713-363.486,3.713S825.909,1703.443,854.269,1716.729z"/>
	<g>
		<g>
			<g>
				<path style="fill:#50BFA5;" d="M630.901,1810.828l3.019-2.575c-68.488-83.439-97.735-188.025-110.211-261.069
					c-13.539-79.27-10.8-139.546-10.771-140.146l-4.156-0.747c-0.03,0.604-2.795,61.284,10.813,141.027
					C532.166,1620.985,561.682,1726.5,630.901,1810.828z"/>
			</g>
			<g>
				<path style="fill:#50BFA5;" d="M522.1,1393.788c2.029,18.006-2.63,33.566-11.634,43.56
					c-11.461-11.814-19.757-28.527-21.786-46.533c-2.028-18.007,2.631-33.567,11.635-43.561
					C511.775,1359.068,520.071,1375.781,522.1,1393.788z"/>
			</g>
			<g>
				<path style="fill:#50BFA5;" d="M495.381,1435.729c11.741,14.864,17.757,32.314,17.75,47.84
					c-14.228-2.476-29.255-11.665-40.996-26.529c-11.741-14.863-17.758-32.314-17.75-47.84
					C468.613,1411.677,483.64,1420.866,495.381,1435.729z"/>
			</g>
			<g>
				<path style="fill:#50BFA5;" d="M484.355,1485.833c15.549,8.571,27.618,22.65,34.088,37.948
					c-12.36,4.918-28.159,3.636-43.707-4.935c-15.548-8.57-27.618-22.649-34.088-37.947
					C453.008,1475.981,468.807,1477.263,484.355,1485.833z"/>
			</g>
			<g>
				<path style="fill:#50BFA5;" d="M512.15,1568.313c6.715,3.111,12.153,8.666,15.304,14.921
					c-4.981,2.488-11.578,2.468-18.292-0.644c-6.715-3.11-12.153-8.665-15.304-14.921
					C498.839,1565.182,505.436,1565.202,512.15,1568.313z"/>
			</g>
			<g>
				<path style="fill:#50BFA5;" d="M520.584,1599.066c6.715,3.11,12.152,8.666,15.303,14.921
					c-4.981,2.487-11.578,2.467-18.292-0.644c-6.715-3.111-12.153-8.666-15.303-14.922
					C507.273,1595.934,513.87,1595.954,520.584,1599.066z"/>
			</g>
			<g>
				<path style="fill:#50BFA5;" d="M533.294,1469.617c10.971-7.874,24.625-9.253,37.308-5.052
					c-0.603,13.738-6.611,26.472-17.581,34.346c-10.97,7.874-24.625,9.253-37.308,5.052
					C516.317,1490.226,522.324,1477.491,533.294,1469.617z"/>
			</g>
			<g>
				<path style="fill:#50BFA5;" d="M540.595,1516.517c10.97-7.874,24.625-9.252,37.308-5.051
					c-0.604,13.736-6.611,26.471-17.581,34.345c-10.97,7.874-24.625,9.253-37.308,5.051
					C523.617,1537.124,529.625,1524.39,540.595,1516.517z"/>
			</g>
			<g>
				<path style="fill:#50BFA5;" d="M545.395,1584.239c7.141-5.125,16.028-6.021,24.283-3.287
					c-0.393,8.941-4.303,17.229-11.443,22.354c-7.141,5.125-16.028,6.022-24.283,3.288
					C534.345,1597.653,538.255,1589.364,545.395,1584.239z"/>
			</g>
		</g>
	</g>
	<path style="fill:#50BFA5;" d="M682.55,1873.442c0,0-100.125-128.555-141.982-148.25c-44.6-20.986-5.926,51.737-5.926,51.737
		s-95.364-93.682-117.763-70.289c-22.399,23.392,1.517,45.281,1.517,45.281s-79.854-14.837-91.497,15.076
		c-17.891,45.966,113.449,68.831,113.449,68.831s-62.92-13.809-50.33,14.65C409.004,1893.399,682.55,1873.442,682.55,1873.442z"/>
	<path style="fill:#96D9C9;" d="M326.898,1766.998c11.643-29.913,91.497-15.076,91.497-15.076s-23.916-21.889-1.517-45.28
		c22.399-23.394,97.047,31.846,97.047,31.846s-11.566-50.769,44.509-10.833c40.052,28.525,117.359,134.932,117.359,134.932
		L326.898,1766.998z"/>
	<g>
		<g>
			<path style="fill:#50BFA5;" d="M608.925,1871.511c0,0,159.545,11.282,190.621-17.287c31.076-28.569,0.246-80.328,0.246-80.328
				s54.749-43.277,53.895-71.536c-0.855-28.258-36.525-13.921-36.525-13.921s60.455-77.841,46.115-92.646
				c-26.708-27.574-96.604,53.338-96.604,53.338s20.742-38.489-1.141-44.601c-33.002-9.217-57.275,85.711-57.275,85.711
				s6.156-37.492-16.59-32.515C650.854,1666.655,608.925,1871.511,608.925,1871.511z"/>
		</g>
	</g>
	<path style="fill:#50BFA5;" d="M2020.219,1431.65l12.881-31.233c9.992-22.972,35.564-33.94,57.117-24.501l0,0
		c54.309,23.788,77.92,89.999,52.734,147.888l-18.411,42.321c-8.066,18.542-5.257,38.938,5.62,53.32
		c9.877,13.061,11.49,31.223,4.643,46.968l-9.707,22.313c-10.51,24.156-30.957,42.046-55.209,49.424
		c-14.184,4.315-26.709,14.996-33.334,30.223l-13.744,31.593c-15.193,34.927-54.074,51.605-86.842,37.253l-18.696-8.188
		c-32.767-14.353-47.013-54.302-31.817-89.229l0,0c24.57-41.762,22.611-72.933,13.904-94.072
		c-12.803-31.086-12.654-66.852,1.195-98.687l1.943-4.465c14.617-33.601,42.846-58.688,76.461-69.431
		C1993.799,1468.403,2009.268,1456.823,2020.219,1431.65z"/>
	<path style="fill:#96D9C9;" d="M1786.141,1870.385c26.355-34.286,172.803-216.388,267.037-246.998
		c104.02-33.788,5.982,100.411,5.982,100.411s184.525-202.461,252.24-184.208c62.071,16.73,0,142.225,0,142.225
		s69.91-69.491,154.691-69.491c82.512,0-57.287,252.67-64.848,265.862L1786.141,1870.385z"/>
	<path style="fill:#3C8F7C;" d="M1708.904,1690.729c0,0-78.354-172.995-52.161-211.597c36.199-53.346,81.212,110.352,83.407,95.964
		c20.733-135.877,16.395-307.249,113.358-333.219c55.12-14.763-3.645,127.988,3.201,164.768
		c6.845,36.78,98.538-94.533,155.01-164.007c56.473-69.475,91.052-31.144,58.316,53.141
		c-31.654,81.5-146.326,176.997-120.656,185.171c25.669,8.174,149.054-95.705,170.747-53.863
		c26.597,51.304-157.914,124.15-135.667,134.367c22.246,10.217,126.785-58.265,126.785-0.888
		c0,40.867-156.582,61.185-152.785,78.854c6.146,28.613,92.877-42.749,100.038-3.05c7.324,40.604-115.309,46.624-110.705,78.383
		c2.646,18.251,33.366-4.242,41.334,20.295c18,55.434-158,137.038-158,137.038L1708.904,1690.729z"/>
	<g>
		<g>
			<path style="fill:#3C8F7C;" d="M2342.092,1480.682c-75.393,118.147-130.321,255.243-161.781,394.675l-7.463-0.083
				c31.328-136.513,88.182-274.685,163.449-392.703c17.492-27.43,36.383-59.968,69.135-70.668c0.631-0.206,0.871,0.758,0.268,0.985
				C2375.785,1424.198,2358.457,1455.033,2342.092,1480.682z"/>
		</g>
		<g>
			<path style="fill:#3C8F7C;" d="M2197.453,1875.606c84.248-114.956,187.609-222.416,309.398-314.813
				c1.215-0.922,2.855,1.204,1.633,2.148c-115.508,89.09-217.33,193.841-303.32,312.726L2197.453,1875.606z"/>
		</g>
		<path style="fill:#3C8F7C;" d="M2348.98,1407.411c1.94,2.863,9.371,10.333,11.553,20.146c2.934,9.311,0.617,20.964,0.369,20.556
			c-0.561,0.232,8.596-7.536,11.457-19.892c3.703-11.85,1.11-28.287-3.496-33.734c-7.956-12.311-21.854-13.558-24.553-7.588
			C2341.445,1392.828,2345.078,1400.896,2348.98,1407.411z"/>
		<path style="fill:#3C8F7C;" d="M2367.018,1512.871c-2.814-2.004-10.112-9.604-19.847-11.987
			c-9.22-3.125-20.876-1.032-20.474-0.774c-0.243,0.557,7.678-8.476,20.045-11.102c11.88-3.481,28.209-0.558,33.545,4.171
			c12.109,8.225,13.078,22.193,7.076,24.783C2381.398,1520.719,2373.432,1516.915,2367.018,1512.871z"/>
		<path style="fill:#3C8F7C;" d="M2339.799,1559.092c-2.814-2.003-10.112-9.604-19.848-11.987
			c-9.219-3.124-20.875-1.032-20.473-0.774c-0.242,0.558,7.677-8.475,20.044-11.102c11.881-3.481,28.21-0.557,33.546,4.172
			c12.109,8.224,13.078,22.193,7.076,24.782C2354.18,1566.939,2346.213,1563.136,2339.799,1559.092z"/>
		<path style="fill:#3C8F7C;" d="M2436.887,1666.302c-2.815-2.004-10.111-9.604-19.848-11.987
			c-9.218-3.125-20.875-1.032-20.473-0.774c-0.243,0.557,7.678-8.476,20.045-11.102c11.881-3.481,28.209-0.558,33.544,4.171
			c12.11,8.224,13.079,22.192,7.077,24.782C2451.27,1674.149,2443.301,1670.345,2436.887,1666.302z"/>
		<path style="fill:#3C8F7C;" d="M2486.488,1622.454c-2.815-2.004-10.111-9.604-19.846-11.987
			c-9.22-3.125-20.877-1.032-20.475-0.774c-0.242,0.557,7.68-8.476,20.047-11.101c11.879-3.482,28.206-0.557,33.542,4.172
			c12.11,8.224,13.079,22.192,7.079,24.782C2500.87,1630.302,2492.903,1626.498,2486.488,1622.454z"/>
		<path style="fill:#3C8F7C;" d="M2310.896,1459.712c2.367,2.521,10.876,8.722,14.573,18.067c4.358,8.729,3.903,20.604,3.595,20.24
			c-0.518,0.317,7.305-8.803,8.188-21.455c1.795-12.288-3.349-28.11-8.752-32.759c-9.791-10.898-23.712-9.932-25.439-3.61
			C2301.164,1446.504,2306.02,1453.896,2310.896,1459.712z"/>
		<path style="fill:#3C8F7C;" d="M2270.87,1512.13c3.369,1.793,15.137,5.043,21.056,13.879c6.699,7.863,7.551,21.313,7.105,21.04
			c-0.631,0.577,8.389-12.974,7.998-27.478c0.834-14.487-7.741-29.928-15.301-32.786c-13.994-7.941-31.896-0.858-33.365,6.942
			C2256.671,1501.586,2263.854,1507.742,2270.87,1512.13z"/>
		<path style="fill:#3C8F7C;" d="M2228.744,1591.522c3.621,1.198,15.768,2.417,23.082,10.128
			c7.922,6.621,11.014,19.734,10.529,19.541c-0.523,0.675,6.096-14.204,3.279-28.434c-1.605-14.423-12.646-28.196-20.576-29.738
			c-15.127-5.467-31.588,4.537-31.729,12.475C2212.98,1583.524,2221.09,1588.382,2228.744,1591.522z"/>
		<path style="fill:#3C8F7C;" d="M2353.4,1646.825c2.638,1.65,12.025,4.967,16.339,12.493c5.003,6.778,4.932,17.767,4.585,17.52
			c-0.545,0.434,7.561-10.073,8.065-21.893c1.5-11.737-4.599-24.787-10.585-27.544c-10.933-7.259-25.896-2.521-27.535,3.741
			C2342.447,1637.438,2347.939,1642.855,2353.4,1646.825z"/>
		<path style="fill:#3C8F7C;" d="M2418.299,1425.999c-1.579-1.309-5.563-6.125-11.219-7.962c-5.316-2.254-12.305-1.527-12.078-1.357
			c-0.166,0.319,4.912-4.677,12.344-5.688c7.18-1.537,16.71,0.909,19.661,3.94c6.806,5.396,6.769,13.703,3.106,14.972
			C2426.465,1431.274,2421.918,1428.673,2418.299,1425.999z"/>
		<path style="fill:#3C8F7C;" d="M2403.184,1392.261c0.07,2.054,1.438,8.161-0.563,13.776c-1.467,5.602-6.306,10.711-6.302,10.427
			c-0.354-0.062,6.688-1.048,12.023-6.336c5.597-4.768,9.484-13.836,8.894-18.031c-0.104-8.702-6.685-13.744-9.921-11.607
			C2404.005,1382.553,2403.282,1387.754,2403.184,1392.261z"/>
		<path style="fill:#3C8F7C;" d="M2522.209,1577.79c-1.576-1.309-5.561-6.125-11.217-7.962c-5.316-2.253-12.306-1.527-12.078-1.358
			c-0.168,0.319,4.912-4.676,12.343-5.687c7.18-1.538,16.71,0.908,19.661,3.94c6.805,5.396,6.769,13.702,3.105,14.971
			C2530.375,1583.064,2525.828,1580.464,2522.209,1577.79z"/>
		<path style="fill:#3C8F7C;" d="M2503.977,1543.763c0.236,2.04,2.1,8.014,0.562,13.775c-1.005,5.703-5.409,11.193-5.429,10.91
			c-0.357-0.032,6.581-1.595,11.467-7.304c5.189-5.211,8.322-14.568,7.391-18.701c-0.816-8.664-7.783-13.149-10.836-10.753
			C2504.002,1534.019,2503.706,1539.262,2503.977,1543.763z"/>
	</g>
	<path style="fill:#3C8F7C;" d="M2421.902,1739.707c0.501,3.168,3.791,12.37,1.762,21.46c-1.203,8.963-7.728,17.814-7.774,17.374
		c-0.56-0.027,10.169-2.913,17.425-12.137c7.762-8.467,12.053-23.27,10.334-29.658c-1.828-13.468-12.988-20.016-17.598-16.081
		C2421.319,1724.501,2421.191,1732.701,2421.902,1739.707z"/>
	<path style="fill:#3C8F7C;" d="M2354.082,1764.072c0.5,3.169,3.79,12.37,1.762,21.46c-1.204,8.964-7.727,17.815-7.774,17.374
		c-0.56-0.027,10.168-2.913,17.425-12.136c7.762-8.467,12.053-23.27,10.334-29.658c-1.828-13.468-12.988-20.016-17.598-16.081
		C2353.498,1748.866,2353.371,1757.067,2354.082,1764.072z"/>
	<path style="fill:#3C8F7C;" d="M2285.17,1794.894c0.5,3.168,3.791,12.37,1.762,21.46c-1.203,8.964-7.727,17.814-7.773,17.374
		c-0.561-0.027,10.168-2.913,17.424-12.137c7.764-8.467,12.053-23.27,10.334-29.658c-1.828-13.467-12.986-20.016-17.597-16.08
		C2284.587,1779.688,2284.461,1787.888,2285.17,1794.894z"/>
	<path style="fill:#3C8F7C;" d="M2442.148,1803.287c-1.395-2.615-4.088-11.238-10.639-16.8c-5.872-5.933-15.603-8.803-15.393-8.451
		c-0.397,0.334,9.115-3.547,19.592-0.814c10.429,1.892,21.824,10.398,24.111,16.068c6.145,10.948,1.563,22.023-4.023,21.705
		C2450.176,1814.819,2445.521,1808.848,2442.148,1803.287z"/>
	<path style="fill:#3C8F7C;" d="M2371.604,1828.342c-1.393-2.615-4.086-11.239-10.637-16.801c-5.873-5.932-15.604-8.802-15.394-8.45
		c-0.397,0.334,9.113-3.547,19.591-0.814c10.43,1.892,21.825,10.397,24.111,16.068c6.145,10.948,1.563,22.022-4.023,21.704
		C2379.633,1839.874,2374.977,1833.901,2371.604,1828.342z"/>
	<path style="fill:#3C8F7C;" d="M2495.872,1777.497c-1.219-1.458-4.046-6.516-8.892-9.14c-4.467-2.946-10.955-3.459-10.777-3.267
		c-0.205,0.263,5.256-3.435,12.195-3.108c6.797-0.194,15.072,3.636,17.255,6.894c5.3,6.061,3.882,13.622,0.332,14.162
		C2502.434,1783.674,2498.723,1780.541,2495.872,1777.497z"/>
	<path style="fill:#3C8F7C;" d="M2487.732,1744.218c-0.279,1.883-0.051,7.677-2.813,12.457c-2.271,4.856-7.533,8.699-7.483,8.441
		c-0.312-0.115,6.271,0.169,12.015-3.753c5.895-3.403,10.949-11.013,11.109-14.935c1.357-7.946-3.795-13.646-7.102-12.243
		C2490.102,1735.511,2488.573,1740.128,2487.732,1744.218z"/>
	<path style="fill:#3C8F7C;" d="M2491.235,1763.026c-21.731,1.965-43.202,5.963-64.302,11.507
		c-38.488,10.113-75.511,25.053-111.941,40.936c-17.908,7.808-35.936,15.51-53.504,24.068c-8.209,3.999-16.479,8.015-24.047,13.142
		c-10.199,6.911-26.12,20.764-28.049,22.948l8.364,0.249c5.715-4.655,26.699-22.375,55.825-36.406
		c69.021-33.25,140.721-67.348,217.703-75.815C2491.687,1763.61,2491.639,1762.989,2491.235,1763.026z"/>
	<g>
		<g>
			<path style="fill:#F7CC7F;" d="M908.26,419.052h933.354c29.579,0,53.558,23.979,53.558,53.558v1353.4
				c0,29.58-23.979,53.558-53.558,53.558H908.26c-29.579,0-53.557-23.978-53.557-53.558v-1353.4
				C854.703,443.03,878.682,419.052,908.26,419.052z"/>
			<rect x="948.391" y="539.18" style="fill:#3CB4C5;" width="862.907" height="222.803"/>
			<polygon style="opacity:0.5;fill:#3CB4C5;" points="971.284,571.253 1811.298,571.253 1811.298,539.18 948.391,539.18 
				948.391,761.982 971.284,761.982 			"/>
			<path style="fill:#F47458;" d="M1191.871,905.808H952.508c-2.274,0-4.118-1.844-4.118-4.119v-72.031
				c0-2.274,1.844-4.117,4.118-4.117h239.363c2.275,0,4.119,1.843,4.119,4.117v72.032
				C1195.99,903.964,1194.146,905.808,1191.871,905.808z"/>
			<path style="fill:#F47458;" d="M1499.526,905.808h-239.364c-2.273,0-4.117-1.844-4.117-4.118v-72.032
				c0-2.274,1.843-4.117,4.117-4.117h239.364c2.273,0,4.117,1.843,4.117,4.117v72.032
				C1503.644,903.964,1501.8,905.808,1499.526,905.808z"/>
			<path style="fill:#F47458;" d="M1807.181,905.808h-239.363c-2.273,0-4.117-1.844-4.117-4.118v-72.032
				c0-2.274,1.844-4.117,4.117-4.117h239.363c2.274,0,4.117,1.843,4.117,4.117v72.032
				C1811.298,903.964,1809.455,905.808,1807.181,905.808z"/>
			<path style="fill:#F47458;" d="M1130.775,1149.31H957.622c-5.099,0-9.231-4.132-9.231-9.23V978.596
				c0-5.098,4.133-9.232,9.231-9.232h173.152c5.098,0,9.23,4.134,9.23,9.232v161.483
				C1140.005,1145.178,1135.871,1149.31,1130.775,1149.31z"/>
			<path style="fill:#FAE0B2;" d="M1354.539,1149.31h-173.153c-5.098,0-9.231-4.132-9.231-9.23V978.596
				c0-5.098,4.132-9.232,9.231-9.232h173.153c5.098,0,9.231,4.134,9.231,9.232v161.483
				C1363.77,1145.178,1359.637,1149.31,1354.539,1149.31z"/>
			<path style="fill:#FAE0B2;" d="M1578.303,1149.31H1405.15c-5.099,0-9.23-4.132-9.23-9.23V978.596c0-5.098,4.132-9.232,9.23-9.232
				h173.152c5.099,0,9.23,4.134,9.23,9.232v161.483C1587.533,1145.178,1583.401,1149.31,1578.303,1149.31z"/>
			<path style="fill:#F47458;" d="M1130.775,1371.149H957.622c-5.099,0-9.231-4.135-9.231-9.233v-161.481
				c0-5.099,4.132-9.231,9.231-9.231h173.152c5.098,0,9.23,4.133,9.23,9.231v161.481
				C1140.005,1367.014,1135.873,1371.149,1130.775,1371.149z"/>
			<path style="fill:#FAE0B2;" d="M1354.539,1371.149h-173.152c-5.099,0-9.232-4.135-9.232-9.233v-161.481
				c0-5.099,4.132-9.231,9.232-9.231h173.152c5.098,0,9.231,4.133,9.231,9.231v161.481
				C1363.77,1367.014,1359.637,1371.149,1354.539,1371.149z"/>
			<path style="fill:#FAE0B2;" d="M1578.303,1371.149H1405.15c-5.099,0-9.23-4.135-9.23-9.233v-161.481
				c0-5.099,4.132-9.231,9.23-9.231h173.152c5.099,0,9.23,4.133,9.23,9.231v161.481
				C1587.533,1367.014,1583.401,1371.149,1578.303,1371.149z"/>
			<path style="fill:#FAE0B2;" d="M1772.262,969.364h-113.541c-21.559,0-39.037,17.537-39.037,39.169v55.697v45.91v221.838
				c0,21.633,17.478,39.17,39.037,39.17h113.541c21.559,0,39.036-17.537,39.036-39.17v-221.838v-45.91v-55.697
				C1811.298,986.901,1793.821,969.364,1772.262,969.364z"/>
			<path style="fill:#F47458;" d="M1130.775,1592.986H957.622c-5.099,0-9.231-4.134-9.231-9.233v-161.482
				c0-5.099,4.132-9.23,9.231-9.23h173.152c5.098,0,9.23,4.132,9.23,9.23v161.482
				C1140.005,1588.853,1135.873,1592.986,1130.775,1592.986z"/>
			<path style="fill:#FAE0B2;" d="M1354.539,1592.986h-173.153c-5.098,0-9.231-4.134-9.231-9.233v-161.482
				c0-5.099,4.132-9.23,9.231-9.23h173.153c5.098,0,9.231,4.132,9.231,9.23v161.482
				C1363.77,1588.853,1359.637,1592.986,1354.539,1592.986z"/>
			<path style="fill:#FAE0B2;" d="M1578.303,1592.986H1405.15c-5.099,0-9.23-4.134-9.23-9.233v-161.482
				c0-5.099,4.132-9.23,9.23-9.23h173.152c5.099,0,9.23,4.132,9.23,9.23v161.482
				C1587.533,1588.853,1583.401,1592.986,1578.303,1592.986z"/>
			<path style="fill:#FAE0B2;" d="M1802.067,1592.986h-173.153c-5.098,0-9.23-4.134-9.23-9.233v-161.482
				c0-5.099,4.134-9.23,9.23-9.23h173.153c5.099,0,9.23,4.132,9.23,9.23v161.482
				C1811.298,1588.853,1807.166,1592.986,1802.067,1592.986z"/>
			<path style="fill:#F47458;" d="M1130.775,1814.822H957.622c-5.099,0-9.231-4.132-9.231-9.23v-161.482
				c0-5.099,4.132-9.23,9.231-9.23h173.152c5.098,0,9.23,4.132,9.23,9.23v161.482
				C1140.005,1810.691,1135.873,1814.822,1130.775,1814.822z"/>
			<path style="fill:#FAE0B2;" d="M1354.539,1814.822h-173.153c-5.098,0-9.231-4.132-9.231-9.23v-161.482
				c0-5.099,4.132-9.23,9.231-9.23h173.153c5.098,0,9.231,4.132,9.231,9.23v161.482
				C1363.77,1810.691,1359.637,1814.822,1354.539,1814.822z"/>
			<path style="fill:#FAE0B2;" d="M1578.303,1814.822H1405.15c-5.099,0-9.23-4.132-9.23-9.23v-161.482c0-5.099,4.132-9.23,9.23-9.23
				h173.152c5.099,0,9.23,4.132,9.23,9.23v161.482C1587.533,1810.691,1583.401,1814.822,1578.303,1814.822z"/>
			<path style="fill:#E87B50;" d="M1802.067,1814.822h-173.153c-5.098,0-9.23-4.132-9.23-9.23v-161.482
				c0-5.099,4.134-9.23,9.23-9.23h173.153c5.099,0,9.23,4.132,9.23,9.23v161.482
				C1811.298,1810.691,1807.166,1814.822,1802.067,1814.822z"/>
			<g>
				<path style="fill:#FFFFFF;" d="M1077,1455.733v9.098l-44.237,92.85h-14.224l44.08-90.185v-0.313h-49.706v-11.45H1077z"/>
			</g>
			<g>
				<path style="fill:#FFFFFF;" d="M1234.416,1531.802c0-12.86,7.66-21.958,20.164-27.291l-0.156-0.47
					c-11.255-5.333-16.1-14.115-16.1-22.898c0-16.155,13.599-27.134,31.418-27.134c19.695,0,29.543,12.39,29.543,25.094
					c0,8.626-4.22,17.88-16.725,23.842v0.469c12.66,5.02,20.476,13.959,20.476,26.351c0,17.724-15.162,29.643-34.545,29.643
					C1247.233,1559.406,1234.416,1546.702,1234.416,1531.802z M1289.126,1531.174c0-12.39-8.598-18.351-22.352-22.271
					c-11.879,3.451-18.289,11.292-18.289,21.017c-0.469,10.351,7.347,19.449,20.321,19.449
					C1281.153,1549.369,1289.126,1541.683,1289.126,1531.174z M1251.298,1480.2c0,10.196,7.66,15.685,19.381,18.822
					c8.754-2.981,15.476-9.255,15.476-18.507c0-8.156-4.845-16.626-17.195-16.626
					C1257.55,1463.89,1251.298,1471.418,1251.298,1480.2z"/>
			</g>
			<g>
				<path style="fill:#FFFFFF;" d="M1303.191,1724.721c0,34.662-12.816,53.797-35.325,53.797c-19.851,0-33.294-18.664-33.606-52.387
					c0-34.189,14.691-53.012,35.325-53.012C1291.001,1673.119,1303.191,1692.254,1303.191,1724.721z M1248.015,1726.289
					c0,26.506,8.129,41.563,20.633,41.563c14.067,0,20.789-16.468,20.789-42.505c0-25.094-6.409-41.563-20.632-41.563
					C1256.768,1683.785,1248.015,1698.527,1248.015,1726.289z"/>
			</g>
			<g>
				<path style="fill:#FFFFFF;" d="M1470.615,1547.956c2.972,0.314,6.41,0,11.099-0.469c7.972-1.098,15.476-4.392,21.26-9.883
					c6.72-6.115,11.566-15.057,13.441-27.132h-0.469c-5.627,6.899-13.755,10.979-23.915,10.979
					c-18.288,0-30.013-13.804-30.013-31.213c0-19.291,13.911-36.229,34.701-36.229c20.79,0,33.607,16.938,33.607,42.974
					c0,22.429-7.504,38.113-17.506,47.838c-7.816,7.685-18.603,12.39-29.543,13.645c-5.003,0.785-9.379,0.941-12.663,0.785V1547.956
					z M1475.618,1489.298c0,12.704,7.66,21.644,19.539,21.644c9.222,0,16.413-4.547,20.007-10.665
					c0.782-1.254,1.251-2.822,1.251-5.019c0-17.408-6.409-30.74-20.788-30.74
					C1483.902,1464.517,1475.618,1474.868,1475.618,1489.298z"/>
			</g>
			<g>
				<path style="fill:#FFFFFF;" d="M1053.553,1331.501v-27.762h-47.205v-9.097l45.33-65.09h14.849v63.364h14.224v10.822h-14.224
					v27.762H1053.553z M1053.553,1292.917v-34.034c0-5.332,0.156-10.666,0.469-15.998h-0.469c-3.126,5.96-5.627,10.352-8.44,15.057
					l-24.853,34.662v0.313H1053.553z"/>
			</g>
			<g>
				<path style="fill:#FFFFFF;" d="M1296.315,1241.159h-38.765l-3.906,26.192c2.344-0.313,4.53-0.625,8.284-0.625
					c7.815,0,15.631,1.724,21.883,5.488c7.973,4.549,14.538,13.33,14.538,26.191c0,19.919-15.788,34.819-37.829,34.819
					c-11.097,0-20.476-3.138-25.322-6.273l3.439-10.509c4.221,2.511,12.505,5.648,21.726,5.648c12.975,0,24.073-8.47,24.073-22.115
					c-0.157-13.175-8.911-22.585-29.231-22.585c-5.783,0-10.317,0.627-14.068,1.099l6.565-48.936h48.613V1241.159z"/>
			</g>
			<g>
				<path style="fill:#FFFFFF;" d="M1520.636,1239.278c-2.814-0.157-6.409,0-10.316,0.627
					c-21.571,3.607-32.982,19.447-35.326,36.229h0.469c4.847-6.431,13.286-11.763,24.54-11.763
					c17.977,0,30.638,13.019,30.638,32.938c0,18.663-12.661,35.916-33.763,35.916c-21.728,0-35.953-16.938-35.953-43.445
					c0-20.076,7.191-35.917,17.195-45.954c8.441-8.313,19.695-13.489,32.513-15.057c4.064-0.629,7.502-0.785,10.004-0.785V1239.278z
					 M1516.728,1298.093c0-14.586-8.285-23.369-20.946-23.369c-8.283,0-15.943,5.176-19.693,12.548
					c-0.939,1.567-1.564,3.607-1.564,6.116c0.313,16.784,7.972,29.173,22.353,29.173
					C1508.757,1322.561,1516.728,1312.679,1516.728,1298.093z"/>
			</g>
			<g>
				<path style="fill:#FFFFFF;" d="M1040.892,1025.658h-0.313l-17.663,9.567l-2.657-10.509l22.194-11.92h11.724v101.948h-13.286
					V1025.658z"/>
			</g>
			<g>
				<path style="fill:#FFFFFF;" d="M1235.667,1114.745v-8.47l10.784-10.509c25.948-24.78,37.672-37.956,37.828-53.325
					c0-10.353-5.001-19.919-20.164-19.919c-9.221,0-16.882,4.705-21.57,8.625l-4.378-9.724c7.034-5.96,17.038-10.353,28.761-10.353
					c21.883,0,31.105,15.057,31.105,29.644c0,18.821-13.598,34.034-35.014,54.739l-8.126,7.528v0.313h45.64v11.45H1235.667z"/>
			</g>
			<g>
				<path style="fill:#FFFFFF;" d="M1465.927,1098.903c3.908,2.511,12.974,6.431,22.508,6.431c17.665,0,23.136-11.292,22.979-19.763
					c-0.157-14.272-12.975-20.389-26.262-20.389h-7.659v-10.353h7.659c10.005,0,22.666-5.175,22.666-17.252
					c0-8.154-5.159-15.37-17.82-15.37c-8.127,0-15.943,3.608-20.319,6.743l-3.596-10.037c5.314-3.92,15.631-7.843,26.572-7.843
					c20.008,0,29.073,11.921,29.073,24.312c0,10.509-6.25,19.447-18.755,23.997v0.313c12.505,2.51,22.663,11.92,22.663,26.191
					c0,16.313-12.66,30.586-37.045,30.586c-11.41,0-21.414-3.607-26.416-6.901L1465.927,1098.903z"/>
			</g>
			<g>
				<ellipse style="fill:#FFFFFF;" cx="1044.198" cy="1763.351" rx="12.254" ry="12.296"/>
			</g>
			<g>
				<polygon style="fill:#FFFFFF;" points="1788.281,1176.745 1723.783,1176.745 1723.783,1112.028 1707.199,1112.028 
					1707.199,1176.745 1642.702,1176.745 1642.702,1193.387 1707.199,1193.387 1707.199,1258.104 1723.783,1258.104 
					1723.783,1193.387 1788.281,1193.387 				"/>
			</g>
			<g>
				<polygon style="fill:#FFFFFF;" points="1534.654,1763.157 1500.507,1728.894 1534.654,1694.63 1525.874,1685.819 
					1491.727,1720.082 1457.58,1685.819 1448.799,1694.63 1482.946,1728.894 1448.799,1763.157 1457.58,1771.967 1491.727,1737.703 
					1525.874,1771.967 				"/>
			</g>
			<g>
				<rect x="1657.501" y="1499.479" style="fill:#FFFFFF;" width="108.011" height="16.598"/>
			</g>
			<g>
				<rect x="1661.486" y="1691.295" style="fill:#FFFFFF;" width="108.011" height="16.597"/>
			</g>
			<g>
				<rect x="1661.486" y="1733.077" style="fill:#FFFFFF;" width="108.011" height="16.597"/>
			</g>
		</g>
		<g>
			<g>
				<path style="fill:#20407A;" d="M851.74,1290.049c-35.461-28.712-128.362,10.979-142.203,29.508
					c-13.612,18.221-41.242,210.492-20.906,223.791c20.336,13.299,83.271,40.228,109.446,16.47
					C824.253,1536.061,851.74,1290.049,851.74,1290.049z"/>
				<path style="fill:#BD6B4F;" d="M871.61,1284.679c0,0,60.265-30.799,68.42-46.09c8.155-15.293,42.066-64.896,42.066-64.896
					s17.601,0.321,22.204,8.127c-5.656,21.219-23.011,80.012-45.438,97.343c-22.43,17.33-81.492,53.053-81.492,53.053
					L871.61,1284.679z"/>
				<path style="fill:#BD6B4F;" d="M998.05,1201.014c-8.537-2.363-19.299-6.948-27.208-10.571c3.422-4.555,5.767-8.062,6.281-9.697
					c2.404-7.643-12.775-37.551-10.286-40.001c4.579-1.561,12.715,13.886,14.246,12.378c1.532-1.508,2.753-36.458,7.82-36.358
					c5.067,0.101,1.2,26.051,4.376,26.354c3.541,0.338,6.709,1.23,10.061,2.642c3.352,1.412,7.531,3.204,9.33,6.126
					c1.586,2.578,4.034,6.994-1.349,17.199c-7.583,14.376-6.126,11.24-10.614,24.817
					C1000.332,1195.038,999.502,1197.546,998.05,1201.014z"/>
				<g>
					<path style="fill:#BD6B4F;" d="M884.963,1653.941c0,0,1.835,37.604,1.835,60.534c0,22.93-35.313,112.813-32.102,125.653
						c3.211,12.841-33.278,11.096-33.278,11.096s-2.491-69.795,6.909-102.816c9.401-33.017,0-100.888,0-100.888L884.963,1653.941z"
						/>
					<path style="fill:#BD6B4F;" d="M796.383,1635.813c0,0-11.85,62.151-21.482,76.367c-9.631,14.216-61.451,110.979-61.451,123.362
						c0,12.381-32.561,2.292-32.561,2.292s27.514-105.935,38.522-138.035c11.007-32.103,15.133-58.701,15.133-58.701
						L796.383,1635.813z"/>
				</g>
				<path style="fill:#07085B;" d="M896.013,1553.778c3.746,22.732,36.767,140.296,36.767,140.296
					c-50.857,13.885-196.806,22.781-251.376-12.395c0,0,43.084-162.12,68.127-192.197l46.853-7.729l83.088-8.95
					C879.471,1472.804,893.361,1537.693,896.013,1553.778z"/>
				<path style="fill:#FAFCFF;" d="M910.186,1879.567H809.984c0,0-2.066-36.229,4.813-43.107c6.882-6.88,5.047,0.87,16.51,5.249
					c11.466,4.38,18.926-6.183,24.164-11.421c5.241-5.24,1.518,16.718,23.53,16.718S915.229,1869.478,910.186,1879.567z"/>
				<path style="fill:#FAFCFF;" d="M714.5,1831.552c5.181,1.191,21.493,14.496,26.903,28.888c5.41,14.391,3.867,19.531,3.867,19.531
					s-16.577,7.373-48.404,5.047c-31.826-2.326-26.97-5.816-26.97-5.816s2.272-32.741,7.678-42.695
					C682.982,1826.553,705.423,1829.464,714.5,1831.552z"/>
				<path style="fill:#BD6B4F;" d="M723.712,1421.783c0,0-18.967,45.002-13.266,60.695c5.703,15.693,20.622,73.287,20.622,73.287
					s-12.794,11.057-21.352,9.327c-11.558-17.721-42.499-68.028-40.468-95.259c2.033-27.233,14.212-71.603,14.212-71.603
					L723.712,1421.783z"/>
				<path style="fill:#BD6B4F;" d="M699.991,1548.251c7.192-4.594,17.409-9.351,25.101-12.683c1.059,5.385,2.061,9.323,2.901,10.746
					c3.926,6.646,35.132,15.037,35.284,18.398c0.151,3.362-16.969-0.024-16.876,2.044c0.094,2.068,23.177,25.646,19.841,29.213
					c-3.336,3.565-20.792-18.71-22.892-16.464c-2.1,2.244,19.03,28.453,13.259,29.741c-5.77,1.288-17.166-24.481-20.336-22.989
					c-3.171,1.491,8.718,24.679,6.37,27.188c-2.348,2.509-4.632-3.024-7.759-9.17c-3.127-6.146-6.9-15.124-8.259-13.671
					c-1.359,1.452,3.576,18.948,0.416,20.698c-3.159,1.75-17.982-48.277-23.667-56.567
					C702.723,1553.785,701.54,1551.524,699.991,1548.251z"/>
				<path style="fill:#9BC1F9;" d="M669.152,1417.295c0,0,16.734,24.615,52.705,35.748c3.692-19.419,7.666-28.546,8.42-28.438
					c2,0.286,9.686,31.17,18.308,66.294c28.717,16.626,132.702,8.432,132.792-9.145c0.068-13.426-17.581-118.161,1.174-132.815
					c6.817-5.327,57.942-43.834,57.942-43.834s-14.944-37.593-29.826-52.341c0,0-31.439,12.633-59.187,23.794
					c-36.405,14.644-66.017,21.572-86.347,30.813C695.878,1338.852,683.46,1360.12,669.152,1417.295z"/>
				<path style="fill:#466EB6;" d="M762.815,1308.41c18.933,56.541,8.813,157.261-17.949,187.26
					c-7.72-18.676,7.378-75.331-14.58-171.405C729.651,1319.392,760.904,1303.191,762.815,1308.41z"/>
				<path style="fill:#466EB6;" d="M813.831,1289.277c27.355,29.724,62.916,150.484,63.781,155.977
					c-1.203-96.514-32.566-152.547-38.691-163.76C834.881,1278.777,813.352,1286.362,813.831,1289.277z"/>
				<path style="fill:#BD6B4F;" d="M813.823,1266.641c-1.167,17.438,3.762,31.82,6.602,37.49c0,0-17.819,17.473-47.561,7.328
					c1.516-15.526-0.071-33.057-4.547-52.455L813.823,1266.641z"/>
				<path style="fill:#A1543A;" d="M815.097,1287.245c-1.131-5.975-1.783-12.998-1.273-20.604l-45.507-7.637
					c1.124,4.869,2.065,9.619,2.821,14.25C785.438,1283.73,801.44,1289.25,815.097,1287.245z"/>
				<path style="fill:#BD6B4F;" d="M816.301,1176.262c16.419,15.146,39.646,66.08,20.207,89.686
					c-24.646,29.926-68.49,10.641-95.103-28.124C714.792,1199.059,790.973,1152.897,816.301,1176.262z"/>
				<path style="fill:#0E2E35;" d="M766.282,1196.166c0,0-19.093,0.579-11.568,18.515c7.521,17.935,21.117,24.011,13.884,31.241
					c-4.974,4.973-0.761,15.621,1.498,21.489c1.168,3.034-4.064-3.391-11.263-4.011c-17.518-1.513-30.364-6.778-35.702-27.344
					c0,0-15.639-21.525-11.688-46.61c2.904-18.441,17.844-21.206,17.844-21.206s4.154-8.407,23.698-17.799
					c27.618-13.272,68.989-22.34,68.989,3.161C821.975,1169.483,828.785,1192.774,766.282,1196.166z"/>
				<path style="fill:#0E2E35;" d="M744.249,1179.961c-27.068-41.16-80.621-22.091-86.03,7.36
					c-4.607,25.082-25.316,36.524-59.76,37.938c-46.658,1.916-31.31,68.392-4.122,72.217c-30.186,51,72.831,82.5,69.772,32.325
					c37.742-6.825,55.62-27.599,47.956-54.824c-7.665-27.227-11.556-97.141,14.407-84.545
					C753.433,1198.874,744.249,1179.961,744.249,1179.961z"/>
				<path style="fill:#BD6B4F;" d="M771.656,1231.941c-1.35-0.693-19.743-8.775-25.395,0.989
					c-4.618,7.978,4.24,24.993,18.051,24.993C778.119,1257.924,789.013,1240.837,771.656,1231.941z"/>
				<path style="fill:#466EB6;" d="M809.984,1879.567c0,0-0.431-7.524-0.245-16.364c11.75,5.08,76.221,4.264,99.648,3.788
					c2.041,4.702,2.439,9.294,0.798,12.576H809.984z"/>
				<path style="fill:#466EB6;" d="M696.866,1885.018c-31.826-2.326-26.97-5.816-26.97-5.816s0.524-7.542,1.665-16.488l0.005,0.003
					c22.158,19.774,56.754,9.679,71.892,3.791c2.913,9.8,1.812,13.464,1.812,13.464S728.692,1887.344,696.866,1885.018z"/>
			</g>
		</g>
		<g>
			<path style="fill:#BD6B4F;" d="M2094.842,1761.791c0,0,5.606,39.108,15.251,51.726c3.238,4.236,9.151,9.593,13.033,17.249
				c6.042,11.916,2.701,29.656-1.755,39.428c-2.289,5.016,0.16,5-5.049,6.616c-15.428,4.786-31.839-3.274-38.407-18.133
				c-3.669-8.3-6.888-19.372-7.535-33.323c-1.646-35.508-12.628-53.563-12.628-53.563L2094.842,1761.791z"/>
			<path style="fill:#BD6B4F;" d="M1926.108,1779.677c0,0-3.462,44.099-0.652,58.43c1.505,7.674,9.883,23.471,6.04,30.692
				c-3.844,7.223-8.236,9.027-8.236,9.027l-99.602,1.614c-5.426,0.088-1.841-3.424,2.533-6.657
				c7.162-5.296,12.939-8.796,35.813-19.924c1.491-0.725,6.923-4.198,8.881-5.401c4.967-3.05,9.954-7.85,14.248-12.657
				c7.151-8.008,7.776-46.843,7.776-46.843L1926.108,1779.677z"/>
			<path style="fill:#13375B;" d="M1848.26,1193.511c0,0-12.543,71.598-4.308,118.538c8.235,46.938,47.764,482.029,47.764,482.029
				l43.925,2.491c0,0,9.207-181.746,7.56-207.022c-1.647-25.274-14.682-67.571-14.682-67.571l4.371-146.741l-55.43-192.774
				L1848.26,1193.511z"/>
			<path style="fill:#355389;" d="M1977.359,1178.451c0,0,34.587,52.356,42.822,95.685c8.234,43.328-6.045,176.487,9.797,233.267
				c8.575,30.735,41.077,78.201,46.017,117.919c4.941,39.718,24.324,143.756,24.324,143.756l-43.905,8.753l-102.038-259.829
				l-80.039-234.846l-20.503-120.951L1977.359,1178.451z"/>
			<path style="fill:#355389;" d="M2074.924,1850.861c23.929,4.388,39.85-9.689,48.135-20.228
				c6.081,11.938,9.049,29.753,4.574,39.56c-3.938,8.638-15.453,8.389-24.52,8.728c-9.586,0.357-17.003-4.997-21.759-13.393
				C2079.134,1861.61,2076.843,1856.728,2074.924,1850.861z"/>
			<path style="fill:#355389;" d="M1870.899,1847.449c26.342,6.797,45.813,2.176,56.707-2.241
				c2.809,8.006,6.531,18.051,4.558,23.843c-2.419,7.092-5.861,8.694-8.903,8.774c-24.06,0.636-88.135,1.501-106.48,1.741
				c-2.563,0.034-3.975-2.978-2.328-4.955C1819,1869.146,1868.937,1848.655,1870.899,1847.449z"/>
			<g>
				<g>
					<path style="fill:#0E2E35;" d="M1839.475,809.596c-1.276-30.764,3.255-61.142,17.018-89.784
						c11.843-24.642,41.144-38.625,67.864-38.659c84.849-0.11,95.638,111.997,149.649,155.24
						c16.504,13.213,34.95,23.975,50.567,38.224c57.664,52.618,31.689,150.017-21.26,196.146
						c-36.744,32.01-94.492,50.197-139.778,25.175c-23.64-13.064-41.585-34.775-54.37-58.567
						c-18.145-33.766-29.841-72.723-42.747-108.708C1852.682,890.36,1841.172,850.486,1839.475,809.596z"/>
					<g>
						<g>
							<g>
								<path style="fill:#BD6B4F;" d="M1880.563,906.368c0,0,12.979,18.34,7.575,45.757
									c-5.404,27.416-87.551,112.158-97.841,117.605c-11.206,5.933-18.082,3.606-23.104,0.747
									c-43.295-24.644-104.453-155.867-111.552-165.219c-6.229-8.204-6.229-8.204-6.229-8.204l6.026-22.063l119.655,131.551
									C1775.094,1006.542,1872.873,897.237,1880.563,906.368z"/>
								<path style="fill:#6E9DE0;" d="M1894.995,883.743c0,0-9.288,3.741-12.106,5.504c-19.063,11.936-81.537,79.969-81.537,79.969
									s32.879,35.329,47.435,50.437l83.142-62.547L1894.995,883.743z"/>
								<g>
									<g>
										<path style="fill:#9BC1F9;" d="M1953.949,872.023c0,0,48.83-3.104,68.147,17.91
											c19.317,21.014-42.852,187.241-46.365,213.985c-3.513,26.744,17.906,97.854,17.906,97.854s-114.707,23.036-147.489,1.384
											c0,0-3.514-192.312,0-211.416c3.512-19.104,32.782-96.794,39.807-104.436
											C1892.982,879.663,1953.949,872.023,1953.949,872.023z"/>
										<path style="fill:#BD6B4F;" d="M1937.693,806.906c0,0,0.253,1.435,0.707,3.878c2.177,11.716,10.561,50.582,16.225,61.267
											c6.844,12.912-23.432,54.095-52.573,49.068c-8.675-1.496,7.331-37.839,6.563-41.689
											c-1.472-7.369-3.47-17.422-5.513-27.731c-1.152-5.814-2.32-11.711-3.416-17.252c-3.117-15.747-5.659-28.627-5.659-28.627
											L1937.693,806.906z"/>
										<path style="fill:#A1543A;" d="M1938.4,810.784c-0.454-2.442-0.707-3.878-0.707-3.878l-43.667-1.086
											c0,0,2.542,12.88,5.659,28.627c1.09,5.511,2.25,11.372,3.397,17.156c6.742-0.991,13.787-4.262,20.85-10.432
											c7.7-6.727,12.747-14.81,15.793-23.441C1939.187,814.975,1938.738,812.601,1938.4,810.784z"/>
										<path style="fill:#BD6B4F;" d="M1908.303,707.849c0,0,20.582-2.374,33.484,14.279
											c12.901,16.653,26.807,68.151-5.242,96.15c-32.049,27.999-63.716-3.694-68.411-37.297
											C1863.438,747.378,1861.613,706.635,1908.303,707.849z"/>
										<path style="fill:#BD6B4F;" d="M1858.652,780.484c3.826,7.422,10.247,11.531,14.343,9.179
											c4.095-2.352,4.314-10.275,0.488-17.697c-3.825-7.421-10.247-11.531-14.342-9.179
											C1855.046,765.14,1854.827,773.063,1858.652,780.484z"/>
										<path style="fill:#0E2E35;" d="M1906.001,702.343c0,0,27.497,48.972,47.169,51.236
											c19.67,2.263,22.253,28.285,22.253,28.285s-7.032-59.962-26.507-71.524
											C1929.441,698.775,1906.001,702.343,1906.001,702.343z"/>
										<path style="fill:#BD6B4F;" d="M1948.011,765.883c-1.6,8.697,1.566,17.056,7.136,18.197
											c5.567,1.142,11.431-5.365,13.031-14.063c1.6-8.697-1.618-16.673-7.187-17.814
											C1955.422,751.062,1949.611,757.188,1948.011,765.883z"/>
									</g>
								</g>
							</g>
						</g>
					</g>
					<polygon style="fill:#F47458;" points="1813.906,1180.117 1943.128,1183.391 1949.785,1004.133 1812.98,1004.565 					"/>
					<path style="fill:#BD6B4F;" d="M1813.548,1080.808c0.325-0.7,10.158,4.157,17.896,2.454c1.546-0.342-4.16-5.04-4.92-6.431
						c-0.102-0.186-11.56-7.425-10.607-12.368c0.953-4.941,10.805-1.761,10.805-1.761s27.851,12.845,31.786,16.808
						c3.933,3.962,5.587,6.932,5.841,7.297c1.713,0.532,3.189,0.917,4.292,1.063c25.618,3.292,67.459-2.55,131.213-12.57
						l0.074-33.449c13.499,0.8,37.068-1.55,47.94-2.77c-0.571,25.511-0.249,69.75-5.704,78.189
						c-3.825,5.919-37.476,9.903-74.924,12.763c-47.706,3.659-60.216,0.931-101.651-1.957c-12.551-0.927-29.791,2.905-36.339,2.945
						c-9.732,0.062-13.151,1.146-18.069-3.968c-4.148-4.313-3.661-14.932-2.972-21.505
						C1809.507,1093.098,1809.921,1088.326,1813.548,1080.808z"/>
					<path style="fill:#6E9DE0;" d="M1998.26,876.623c0,0,27.559,5.054,40.94,29.586c8.827,16.184,18.238,91.102,15.336,146.792
						c-18.65-3.955-49.961-4.682-69.144-4.755C1986.122,998.341,1988.883,874.947,1998.26,876.623z"/>
				</g>
				<path style="fill:#BD6B4F;" d="M1747.181,980.854c0,0-65.727-81.361-78.63-94.147c-12.902-12.787-65.486-50.096-67.01-46.16
					c-1.524,3.936,28.55,33.308,28.127,34.401c-0.423,1.093-5.266,9.516-7,13.999c-1.734,4.482-2.184,15.257-0.71,18.593
					c1.476,3.336,12.15,9.012,18.163,11.338c6.014,2.327,14.651,1.083,21.844,7.512c7.191,6.428,64.48,91.362,64.48,91.362
					L1747.181,980.854z"/>
			</g>
		</g>
	</g>
</g>
</svg>
